<?xml version="1.0" encoding="UTF-8"?>
<svg id="Layer_2" data-name="Layer 2" xmlns="http://www.w3.org/2000/svg" viewBox="0 0 55.54 40.95">
  <defs>
    <style>
      .cls-1 {
        fill: #add136;
      }

      .cls-2 {
        fill: #c2b59c;
      }
    </style>
  </defs>
  <g id="Layer_1-2" data-name="Layer 1">
    <g>
      <path class="cls-2" d="M45.24,34.58c-11.93,7.37-35.65,7.04-43.07-6.25-.06-.1-.04-.23.03-.32,2.38-2.97,5.95-1.88,7.83-5.67.1-.21.63-.18.73.03,10.91,21.75,14.37.22,22.22,4.88.04.02.08.06.1.1,3.4,5.75,5.7,6.32,12.02,6.71.26.02.36.37.14.51Z"/>
      <path d="M53.21,24.24C59.57,1.81,26.94-1.41,12.77,3.3c-.17.06-.31.16-.41.31-2.43,3.7,1.73,8.03,1.39,10.24-.28,1.82-2.79,3.4-3.43,4.64-.17.32-.04.71.25.93,3.07,2.41,3.19,7.53,6.01,9.76,6.1,4.84,9.38-4.3,14.08-4.31,3.92,0,5.49,6.42,9.11,7.23,7.2,1.63,11.36-1.08,13.44-7.86ZM11.57,13.42c.07-.12.11-.25.11-.39,0-2.5-4.05-4.03-.97-9.62C12.05.98,16.07.49,18.73.25c9.78-.87,26.09.19,32.75,8.25,9.56,11.56.88,26.36-11.84,30.5C27.06,43.09,7.25,41.25.1,28.46c-.1-.19-.13-.42-.07-.63,1.08-3.3,4.27-3.6,7.19-4.42.34-.09.56-.42.55-.77-.18-5.94,1.41-5.02,3.79-9.22ZM32.87,27.19c-7.66-4.33-11.16,16.3-21.7-4.02-.27-.52-1.4-.64-1.31-.07.31,1.92-5.22,2.2-7.44,4.66-.22.24-.24.6-.08.88,7.31,12.48,29.24,13.22,41.45,6.77.68-.36.48-1.38-.29-1.45-5.1-.42-7.29-1.35-10.35-6.48-.07-.12-.17-.22-.29-.29Z"/>
      <path class="cls-1" d="M12.52,3.38c1.39-1.89,15.41-2.24,18.37-1.95,13.81,1.37,26.67,8.55,22.32,22.81-2.07,6.78-6.24,9.49-13.44,7.87-3.62-.82-5.19-7.24-9.11-7.23-4.7,0-7.98,9.15-14.08,4.31-2.93-2.33-2.95-7.77-6.4-10.05-.23-1.3,3.23-3.12,3.57-5.28s-3.99-6.72-1.23-10.47ZM18.55,20.14c3.92,3.94,21.15,1.8,14.6-6.76-6.21-8.11-21.22.11-14.6,6.76ZM47.19,25.37c5.06-1.69,4.56-9.65.86-12.7-.46,2.61,1.07,3.72.91,6.54s-1.19,3.8-1.77,6.16Z"/>
      <path d="M18.55,20.14c-6.62-6.65,8.39-14.86,14.6-6.76,6.55,8.55-10.68,10.7-14.6,6.76ZM33.26,17.37c-1.13-7.72-14.68-7.86-14.55,0,4.77-3.85,9.54-2.23,14.55,0ZM31.77,19.6c-1.19-3.88-10.56-3.96-11.93-1.1.08,3.25,9.58,1.76,11.93,1.1Z"/>
      <path d="M47.29,25.65c-.55-1.17,1.44-5.28,1.14-7.17.1-1.89-.62-4.04-.38-5.81.13-.52.59-.35.88-.05,2.2,2.08,2.87,8.28.64,11.18-.53.8-1.46,2.08-2.24,1.89l-.05-.04Z"/>
      <path class="cls-2" d="M33.26,17.37c-5.01-2.23-9.78-3.85-14.55,0-.13-7.86,13.42-7.72,14.55,0Z"/>
    </g>
  </g>
</svg>