<?xml version="1.0" encoding="UTF-8"?>
<svg id="Layer_2" data-name="Layer 2" xmlns="http://www.w3.org/2000/svg" viewBox="0 0 196.17 140.96">
  <g id="Layer_1-2" data-name="Layer 1">
    <g>
      <path d="M82.55.18c43.95-1.84,117.31,9.7,113.48,68.78C189.14,175.12-26.62,159.32,2.74,51.57,12.76,14.81,47.76,1.64,82.55.18ZM51.56,11.41c-13.31,4.47-23.68,9.17-32.83,20.38s-24.23,44.26,2.9,41.67c7-.67,15.3-8.33,22.61-4.74,8.92,4.38,8.78,25.45,21.27,33.41,18.93,12.06,26.73-13.34,41.02-16.29,19.79-4.09,19.87,19.59,34.28,24.47,7.11,2.41,28.26,1.87,33.78-3.12,5.15-4.66,12.52-20.68,14.19-27.56C206.39,7.06,98.08-4.23,51.56,11.41ZM102.93,92.65c-5.96,3.99-10.78,12.24-18.51,15.76-13.63,6.21-27.04-2.64-33.18-14.87-1.88-3.74-5.8-18.14-8.22-19.61-4.9-2.98-12.28,2.71-16.91,3.98-7.17,1.97-13.5,1.51-19.86-2.48,6.27,51.17,60.53,62.21,103.88,59.68,19.21-1.12,38.78-6.68,54.12-18.44-13.07,1.1-26.18,1.4-35.8-8.92-6.86-7.35-11.98-24.17-25.52-15.11Z"/>
      <path d="M87.48,34.94c5.87-.81,11.49-.42,17.14,1.23,17.63,5.16,30.65,28.53,7.49,36.32-15.54,5.23-47.34,6.53-47.69-16.43-.16-10.97,13.1-19.76,23.06-21.13ZM69.84,59.53c12.51-9.57,27.19-11.31,41.26-4.01,2.02,1.05,4.67,4.13,6.39,4.57,4.09,1.04.23-7.58-.75-9.22-4.24-7.09-15.59-11.33-23.56-11.31-6.95.02-20.38,5.02-22.57,12.26-.82,2.71-1.07,4.88-.78,7.7ZM86.47,56.79c-2.65.45-12.07,4.8-12.62,7.3,4.01,6.38,13.55,6.77,20.33,6.37,2.96-.18,20.32-2.63,20.36-5.45-6.84-7.75-18.14-9.89-28.07-8.21Z"/>
      <path d="M168.79,42.69c6.59-1.95,10.51,16.6,10.44,21.31-.1,6.16-3.71,17.37-8.05,21.86-1.48,1.53-4.92,4.53-5.9.91-.63-2.34,4.86-8.36,6.1-11.65,3.06-8.13,2.44-16.6-.68-24.54-.72-1.82-5.65-6.79-1.91-7.9Z"/>
      <path d="M43.75,109.45l.79,2.78c-2,4.37-10.21-.03-12.96-2.01-3.94-2.83-12.34-13.06-8.97-17.92,3.55-5.12,5.15,5.42,5.92,7.05,2.72,5.73,9.27,8.93,15.22,10.1Z"/>
    </g>
  </g>
</svg>